<svg xmlns="http://www.w3.org/2000/svg" xmlns:xlink="http://www.w3.org/1999/xlink" width="1080" zoomAndPan="magnify" viewBox="0 0 810 809.999993" height="1080" preserveAspectRatio="xMidYMid meet" version="1.0"><defs><clipPath id="6ebb59147f"><path d="M 48.734375 412 L 230 412 L 230 749.871094 L 48.734375 749.871094 Z M 48.734375 412 " clip-rule="nonzero"/></clipPath><clipPath id="271f3bc631"><path d="M 452 97 L 761.234375 97 L 761.234375 322 L 452 322 Z M 452 97 " clip-rule="nonzero"/></clipPath></defs><rect x="-81" width="972" fill="#ffffff" y="-80.999999" height="971.999992" fill-opacity="1"/><g clip-path="url(#6ebb59147f)"><path fill="#545454" d="M 181.070312 749.824219 L 48.734375 749.824219 L 48.734375 725.765625 L 181.070312 725.765625 C 194.332031 725.765625 205.128906 714.96875 205.128906 701.707031 L 205.128906 461.097656 C 205.128906 447.835938 194.332031 437.039062 181.070312 437.039062 L 48.734375 437.039062 L 48.734375 412.980469 L 181.070312 412.980469 C 207.605469 412.980469 229.1875 434.5625 229.1875 461.097656 L 229.1875 701.707031 C 229.1875 728.242188 207.605469 749.824219 181.070312 749.824219 Z M 181.070312 749.824219 " fill-opacity="1" fill-rule="nonzero"/></g><path fill="#545454" d="M 337.460938 593.433594 L 301.367188 593.433594 L 301.367188 569.371094 L 337.460938 569.371094 C 403.796875 569.371094 457.757812 515.398438 457.757812 449.074219 L 457.757812 304.71875 C 457.757812 271.765625 430.945312 244.777344 397.992188 244.566406 L 397.902344 244.566406 C 394.5625 244.566406 391.4375 245.839844 389.082031 248.179688 C 386.820312 250.421875 385.566406 253.421875 385.566406 256.589844 L 385.566406 340.800781 C 385.566406 420.414062 320.808594 485.160156 241.210938 485.160156 L 217.152344 485.160156 L 217.152344 461.097656 L 241.210938 461.097656 C 307.546875 461.097656 361.507812 407.125 361.507812 340.800781 L 361.507812 256.589844 C 361.507812 246.953125 365.273438 237.910156 372.117188 231.101562 C 379.011719 224.257812 388.171875 220.492188 397.917969 220.492188 L 398.140625 220.492188 C 444.269531 220.792969 481.816406 258.566406 481.816406 304.707031 L 481.816406 449.0625 C 481.816406 528.671875 417.058594 593.417969 337.460938 593.417969 Z M 337.460938 593.433594 " fill-opacity="1" fill-rule="nonzero"/><path fill="#545454" d="M 656.265625 509.21875 L 572.050781 509.21875 C 542.199219 509.21875 517.914062 484.933594 517.914062 455.082031 C 517.914062 425.230469 542.199219 400.945312 572.050781 400.945312 L 656.265625 400.945312 C 686.117188 400.945312 710.402344 425.230469 710.402344 455.082031 C 710.402344 484.933594 686.117188 509.21875 656.265625 509.21875 Z M 572.050781 425.003906 C 555.460938 425.003906 541.972656 438.492188 541.972656 455.082031 C 541.972656 471.671875 555.460938 485.160156 572.050781 485.160156 L 656.265625 485.160156 C 672.855469 485.160156 686.339844 471.671875 686.339844 455.082031 C 686.339844 438.492188 672.855469 425.003906 656.265625 425.003906 Z M 572.050781 425.003906 " fill-opacity="1" fill-rule="nonzero"/><path fill="#545454" d="M 668.289062 593.433594 L 572.050781 593.433594 C 542.199219 593.433594 517.914062 569.148438 517.914062 539.296875 C 517.914062 509.445312 542.199219 485.160156 572.050781 485.160156 L 668.289062 485.160156 C 698.140625 485.160156 722.425781 509.445312 722.425781 539.296875 C 722.425781 569.148438 698.140625 593.433594 668.289062 593.433594 Z M 572.050781 509.21875 C 555.460938 509.21875 541.972656 522.707031 541.972656 539.296875 C 541.972656 555.886719 555.460938 569.375 572.050781 569.375 L 668.289062 569.375 C 684.878906 569.375 698.363281 555.886719 698.363281 539.296875 C 698.363281 522.707031 684.878906 509.21875 668.289062 509.21875 Z M 572.050781 509.21875 " fill-opacity="1" fill-rule="nonzero"/><path fill="#545454" d="M 662.269531 665.609375 L 578.054688 665.609375 C 551.519531 665.609375 529.9375 644.027344 529.9375 617.492188 C 529.9375 590.957031 551.519531 569.375 578.054688 569.375 L 662.269531 569.375 C 688.804688 569.375 710.386719 590.957031 710.386719 617.492188 C 710.386719 644.027344 688.804688 665.609375 662.269531 665.609375 Z M 578.054688 593.433594 C 564.792969 593.433594 553.996094 604.230469 553.996094 617.492188 C 553.996094 630.753906 564.792969 641.550781 578.054688 641.550781 L 662.269531 641.550781 C 675.53125 641.550781 686.328125 630.753906 686.328125 617.492188 C 686.328125 604.230469 675.53125 593.433594 662.269531 593.433594 Z M 578.054688 593.433594 " fill-opacity="1" fill-rule="nonzero"/><path fill="#545454" d="M 650.246094 737.789062 L 578.066406 737.789062 C 551.53125 737.789062 529.949219 716.207031 529.949219 689.671875 C 529.949219 663.132812 551.53125 641.550781 578.066406 641.550781 L 650.246094 641.550781 C 676.78125 641.550781 698.363281 663.132812 698.363281 689.671875 C 698.363281 716.207031 676.78125 737.789062 650.246094 737.789062 Z M 578.066406 665.609375 C 564.804688 665.609375 554.007812 676.40625 554.007812 689.671875 C 554.007812 702.933594 564.804688 713.730469 578.066406 713.730469 L 650.246094 713.730469 C 663.507812 713.730469 674.304688 702.933594 674.304688 689.671875 C 674.304688 676.40625 663.507812 665.609375 650.246094 665.609375 Z M 578.066406 665.609375 " fill-opacity="1" fill-rule="nonzero"/><path fill="#545454" d="M 578.066406 737.789062 L 364.4375 737.789062 C 330.015625 737.789062 297.539062 725.003906 272.464844 701.695312 L 217.164062 701.695312 L 217.164062 677.632812 L 282.300781 677.632812 L 285.828125 681.164062 C 306.832031 702.167969 334.746094 713.730469 364.449219 713.730469 L 578.082031 713.730469 L 578.082031 737.789062 Z M 578.066406 737.789062 " fill-opacity="1" fill-rule="nonzero"/><g clip-path="url(#271f3bc631)"><path fill="#545454" d="M 578.066406 321.722656 L 452.777344 196.433594 L 517.914062 131.300781 L 578.066406 191.453125 L 672.304688 97.207031 L 689.320312 114.222656 L 578.066406 225.472656 L 517.914062 165.332031 L 486.808594 196.433594 L 578.066406 287.691406 L 744.28125 121.476562 L 761.285156 138.492188 Z M 578.066406 321.722656 " fill-opacity="1" fill-rule="nonzero"/></g><path fill="#545454" d="M 694.960938 74.558594 L 709.285156 60.238281 L 726.296875 77.25 L 711.976562 91.574219 Z M 694.960938 74.558594 " fill-opacity="1" fill-rule="nonzero"/><path fill="#545454" d="M 469.792969 400.945312 L 566.03125 400.945312 L 566.03125 425.003906 L 469.792969 425.003906 Z M 469.792969 400.945312 " fill-opacity="1" fill-rule="nonzero"/></svg>