<svg xmlns="http://www.w3.org/2000/svg" xmlns:xlink="http://www.w3.org/1999/xlink" width="1080" zoomAndPan="magnify" viewBox="0 0 810 809.999993" height="1080" preserveAspectRatio="xMidYMid meet" version="1.0"><defs><clipPath id="35fe911a59"><path d="M 119.695312 119.695312 L 284 119.695312 L 284 284 L 119.695312 284 Z M 119.695312 119.695312 " clip-rule="nonzero"/></clipPath><clipPath id="ff5fd86bb8"><path d="M 323 119.695312 L 487 119.695312 L 487 284 L 323 284 Z M 323 119.695312 " clip-rule="nonzero"/></clipPath><clipPath id="e6fcbadf86"><path d="M 526 119.695312 L 690.445312 119.695312 L 690.445312 284 L 526 284 Z M 526 119.695312 " clip-rule="nonzero"/></clipPath><clipPath id="5142dd61da"><path d="M 119.695312 323 L 284 323 L 284 487 L 119.695312 487 Z M 119.695312 323 " clip-rule="nonzero"/></clipPath><clipPath id="1876402a42"><path d="M 526 323 L 690.445312 323 L 690.445312 487 L 526 487 Z M 526 323 " clip-rule="nonzero"/></clipPath><clipPath id="c16231b08d"><path d="M 119.695312 526 L 284 526 L 284 690.445312 L 119.695312 690.445312 Z M 119.695312 526 " clip-rule="nonzero"/></clipPath><clipPath id="70cc64efbc"><path d="M 323 526 L 487 526 L 487 690.445312 L 323 690.445312 Z M 323 526 " clip-rule="nonzero"/></clipPath><clipPath id="bb244da8fc"><path d="M 526 526 L 690.445312 526 L 690.445312 690.445312 L 526 690.445312 Z M 526 526 " clip-rule="nonzero"/></clipPath></defs><rect x="-81" width="972" fill="#ffffff" y="-80.999999" height="971.999992" fill-opacity="1"/><g clip-path="url(#35fe911a59)"><path fill="#545454" d="M 259.761719 119.695312 L 143.597656 119.695312 C 130.386719 119.695312 119.695312 130.386719 119.695312 143.597656 L 119.695312 259.761719 C 119.695312 272.976562 130.386719 283.667969 143.597656 283.667969 L 259.761719 283.667969 C 272.976562 283.667969 283.667969 272.976562 283.667969 259.761719 L 283.667969 143.597656 C 283.667969 130.386719 272.976562 119.695312 259.761719 119.695312 Z M 245.589844 187.804688 L 199.339844 234.054688 C 196.757812 236.636719 193.453125 237.898438 190.089844 237.898438 C 186.726562 237.898438 183.363281 236.636719 180.839844 234.054688 L 157.835938 211.050781 C 152.730469 205.945312 152.730469 197.65625 157.835938 192.550781 C 162.941406 187.445312 171.230469 187.445312 176.335938 192.550781 L 190.089844 206.304688 L 227.089844 169.308594 C 232.195312 164.203125 240.484375 164.203125 245.589844 169.308594 C 250.695312 174.414062 250.695312 182.699219 245.589844 187.804688 Z M 245.589844 187.804688 " fill-opacity="1" fill-rule="nonzero"/></g><g clip-path="url(#ff5fd86bb8)"><path fill="#545454" d="M 463.082031 119.695312 L 346.917969 119.695312 C 333.703125 119.695312 323.011719 130.386719 323.011719 143.597656 L 323.011719 259.761719 C 323.011719 272.976562 333.703125 283.667969 346.917969 283.667969 L 463.082031 283.667969 C 476.292969 283.667969 486.984375 272.976562 486.984375 259.761719 L 486.984375 143.597656 C 486.984375 130.386719 476.292969 119.695312 463.082031 119.695312 Z M 448.90625 187.804688 L 402.65625 234.054688 C 400.074219 236.636719 396.769531 237.898438 393.40625 237.898438 C 390.042969 237.898438 386.679688 236.636719 384.15625 234.054688 L 361.152344 211.050781 C 356.046875 205.945312 356.046875 197.65625 361.152344 192.550781 C 366.257812 187.445312 374.546875 187.445312 379.652344 192.550781 L 393.40625 206.304688 L 430.40625 169.308594 C 435.511719 164.203125 443.800781 164.203125 448.90625 169.308594 C 454.011719 174.414062 454.011719 182.699219 448.90625 187.804688 Z M 448.90625 187.804688 " fill-opacity="1" fill-rule="nonzero"/></g><g clip-path="url(#e6fcbadf86)"><path fill="#545454" d="M 666.398438 119.695312 L 550.234375 119.695312 C 537.019531 119.695312 526.328125 130.386719 526.328125 143.597656 L 526.328125 259.761719 C 526.328125 272.976562 537.019531 283.667969 550.234375 283.667969 L 666.398438 283.667969 C 679.613281 283.667969 690.304688 272.976562 690.304688 259.761719 L 690.304688 143.597656 C 690.304688 130.386719 679.613281 119.695312 666.398438 119.695312 Z M 652.164062 187.804688 L 605.914062 234.054688 C 603.332031 236.636719 600.027344 237.898438 596.664062 237.898438 C 593.300781 237.898438 589.9375 236.636719 587.414062 234.054688 L 564.410156 211.050781 C 559.304688 205.945312 559.304688 197.65625 564.410156 192.550781 C 569.515625 187.445312 577.804688 187.445312 582.910156 192.550781 L 596.664062 206.304688 L 633.664062 169.308594 C 638.769531 164.203125 647.058594 164.203125 652.164062 169.308594 C 657.328125 174.414062 657.328125 182.699219 652.164062 187.804688 Z M 652.164062 187.804688 " fill-opacity="1" fill-rule="nonzero"/></g><g clip-path="url(#5142dd61da)"><path fill="#545454" d="M 259.761719 323.011719 L 143.597656 323.011719 C 130.386719 323.011719 119.695312 333.703125 119.695312 346.917969 L 119.695312 463.082031 C 119.695312 476.292969 130.386719 486.984375 143.597656 486.984375 L 259.761719 486.984375 C 272.976562 486.984375 283.667969 476.292969 283.667969 463.082031 L 283.667969 346.917969 C 283.667969 333.703125 272.976562 323.011719 259.761719 323.011719 Z M 245.589844 391.125 L 199.339844 437.371094 C 196.757812 439.957031 193.453125 441.21875 190.089844 441.21875 C 186.726562 441.21875 183.363281 439.957031 180.839844 437.371094 L 157.835938 414.367188 C 152.730469 409.261719 152.730469 400.972656 157.835938 395.867188 C 162.941406 390.761719 171.230469 390.761719 176.335938 395.867188 L 190.089844 409.625 L 227.089844 372.625 C 232.195312 367.519531 240.484375 367.519531 245.589844 372.625 C 250.695312 377.730469 250.695312 386.019531 245.589844 391.125 Z M 245.589844 391.125 " fill-opacity="1" fill-rule="nonzero"/></g><path fill="#545454" d="M 463.082031 323.011719 L 346.917969 323.011719 C 333.703125 323.011719 323.011719 333.703125 323.011719 346.917969 L 323.011719 463.082031 C 323.011719 476.292969 333.703125 486.984375 346.917969 486.984375 L 463.082031 486.984375 C 476.292969 486.984375 486.984375 476.292969 486.984375 463.082031 L 486.984375 346.917969 C 486.984375 333.703125 476.292969 323.011719 463.082031 323.011719 Z M 448.90625 391.125 L 402.65625 437.371094 C 400.074219 439.957031 396.769531 441.21875 393.40625 441.21875 C 390.042969 441.21875 386.679688 439.957031 384.15625 437.371094 L 361.152344 414.367188 C 356.046875 409.261719 356.046875 400.972656 361.152344 395.867188 C 366.257812 390.761719 374.546875 390.761719 379.652344 395.867188 L 393.40625 409.625 L 430.40625 372.625 C 435.511719 367.519531 443.800781 367.519531 448.90625 372.625 C 454.011719 377.730469 454.011719 386.019531 448.90625 391.125 Z M 448.90625 391.125 " fill-opacity="1" fill-rule="nonzero"/><g clip-path="url(#1876402a42)"><path fill="#545454" d="M 666.398438 323.011719 L 550.234375 323.011719 C 537.019531 323.011719 526.328125 333.703125 526.328125 346.917969 L 526.328125 463.082031 C 526.328125 476.292969 537.019531 486.984375 550.234375 486.984375 L 666.398438 486.984375 C 679.613281 486.984375 690.304688 476.292969 690.304688 463.082031 L 690.304688 346.917969 C 690.304688 333.703125 679.613281 323.011719 666.398438 323.011719 Z M 652.164062 391.125 L 605.914062 437.371094 C 603.332031 439.957031 600.027344 441.21875 596.664062 441.21875 C 593.300781 441.21875 589.9375 439.957031 587.414062 437.371094 L 564.410156 414.367188 C 559.304688 409.261719 559.304688 400.972656 564.410156 395.867188 C 569.515625 390.761719 577.804688 390.761719 582.910156 395.867188 L 596.664062 409.625 L 633.664062 372.625 C 638.769531 367.519531 647.058594 367.519531 652.164062 372.625 C 657.328125 377.730469 657.328125 386.019531 652.164062 391.125 Z M 652.164062 391.125 " fill-opacity="1" fill-rule="nonzero"/></g><g clip-path="url(#c16231b08d)"><path fill="#545454" d="M 259.761719 526.328125 L 143.597656 526.328125 C 130.386719 526.328125 119.695312 537.019531 119.695312 550.234375 L 119.695312 666.398438 C 119.695312 679.613281 130.386719 690.304688 143.597656 690.304688 L 259.761719 690.304688 C 272.976562 690.304688 283.667969 679.613281 283.667969 666.398438 L 283.667969 550.234375 C 283.667969 537.019531 272.976562 526.328125 259.761719 526.328125 Z M 245.589844 594.441406 L 199.339844 640.691406 C 196.757812 643.273438 193.453125 644.535156 190.089844 644.535156 C 186.726562 644.535156 183.363281 643.273438 180.839844 640.691406 L 157.835938 617.683594 C 152.730469 612.578125 152.730469 604.292969 157.835938 599.1875 C 162.941406 594.082031 171.230469 594.082031 176.335938 599.1875 L 190.089844 612.941406 L 227.089844 575.941406 C 232.195312 570.835938 240.484375 570.835938 245.589844 575.941406 C 250.695312 581.046875 250.695312 589.335938 245.589844 594.441406 Z M 245.589844 594.441406 " fill-opacity="1" fill-rule="nonzero"/></g><g clip-path="url(#70cc64efbc)"><path fill="#545454" d="M 463.082031 526.328125 L 346.917969 526.328125 C 333.703125 526.328125 323.011719 537.019531 323.011719 550.234375 L 323.011719 666.398438 C 323.011719 679.613281 333.703125 690.304688 346.917969 690.304688 L 463.082031 690.304688 C 476.292969 690.304688 486.984375 679.613281 486.984375 666.398438 L 486.984375 550.234375 C 486.984375 537.019531 476.292969 526.328125 463.082031 526.328125 Z M 448.90625 594.441406 L 402.65625 640.691406 C 400.074219 643.273438 396.769531 644.535156 393.40625 644.535156 C 390.042969 644.535156 386.679688 643.273438 384.15625 640.691406 L 361.152344 617.683594 C 356.046875 612.578125 356.046875 604.292969 361.152344 599.1875 C 366.257812 594.082031 374.546875 594.082031 379.652344 599.1875 L 393.40625 612.941406 L 430.40625 575.941406 C 435.511719 570.835938 443.800781 570.835938 448.90625 575.941406 C 454.011719 581.046875 454.011719 589.335938 448.90625 594.441406 Z M 448.90625 594.441406 " fill-opacity="1" fill-rule="nonzero"/></g><g clip-path="url(#bb244da8fc)"><path fill="#545454" d="M 666.398438 526.328125 L 550.234375 526.328125 C 537.019531 526.328125 526.328125 537.019531 526.328125 550.234375 L 526.328125 666.398438 C 526.328125 679.613281 537.019531 690.304688 550.234375 690.304688 L 666.398438 690.304688 C 679.613281 690.304688 690.304688 679.613281 690.304688 666.398438 L 690.304688 550.234375 C 690.304688 537.019531 679.613281 526.328125 666.398438 526.328125 Z M 652.164062 594.441406 L 605.914062 640.691406 C 603.332031 643.273438 600.027344 644.535156 596.664062 644.535156 C 593.300781 644.535156 589.9375 643.273438 587.414062 640.691406 L 564.410156 617.683594 C 559.304688 612.578125 559.304688 604.292969 564.410156 599.1875 C 569.515625 594.082031 577.804688 594.082031 582.910156 599.1875 L 596.664062 612.941406 L 633.664062 575.941406 C 638.769531 570.835938 647.058594 570.835938 652.164062 575.941406 C 657.328125 581.046875 657.328125 589.335938 652.164062 594.441406 Z M 652.164062 594.441406 " fill-opacity="1" fill-rule="nonzero"/></g></svg>