<svg xmlns="http://www.w3.org/2000/svg" xmlns:xlink="http://www.w3.org/1999/xlink" width="1080" zoomAndPan="magnify" viewBox="0 0 810 809.999993" height="1080" preserveAspectRatio="xMidYMid meet" version="1.0"><defs><clipPath id="380e19db64"><path d="M 59.871094 59.871094 L 749.871094 59.871094 L 749.871094 749.871094 L 59.871094 749.871094 Z M 59.871094 59.871094 " clip-rule="nonzero"/></clipPath></defs><rect x="-81" width="972" fill="#ffffff" y="-80.999999" height="971.999992" fill-opacity="1"/><path fill="#545454" d="M 365.257812 311.445312 C 370.058594 316.785156 378.230469 317.167969 383.5 312.300781 L 405.054688 292.410156 L 426.609375 312.300781 C 431.878906 317.167969 440.046875 316.785156 444.847656 311.445312 C 449.648438 306.109375 449.277344 297.828125 443.996094 292.957031 L 424.230469 274.707031 L 443.996094 256.453125 C 449.265625 251.582031 449.648438 243.316406 444.847656 237.964844 C 442.441406 235.296875 439.207031 233.863281 435.90625 233.699219 C 432.605469 233.546875 429.25 234.664062 426.609375 237.097656 L 405.054688 256.988281 L 383.5 237.097656 C 380.855469 234.664062 377.5 233.546875 374.199219 233.699219 C 370.898438 233.851562 367.652344 235.28125 365.257812 237.949219 C 360.457031 243.289062 360.828125 251.566406 366.109375 256.4375 L 385.878906 274.691406 L 366.109375 292.945312 C 360.84375 297.816406 360.457031 306.082031 365.257812 311.433594 Z M 365.257812 311.445312 " fill-opacity="1" fill-rule="nonzero"/><g clip-path="url(#380e19db64)"><path fill="#545454" d="M 405.027344 59.871094 C 214.398438 59.871094 59.871094 214.402344 59.871094 405.027344 C 59.871094 595.652344 214.398438 750.183594 405.027344 750.183594 C 595.652344 750.183594 750.183594 595.652344 750.183594 405.027344 C 750.183594 214.402344 595.652344 59.871094 405.027344 59.871094 Z M 405.054688 197.136719 C 447.339844 197.136719 481.617188 231.871094 481.617188 274.71875 C 481.617188 317.566406 447.339844 352.300781 405.054688 352.300781 C 362.769531 352.300781 328.488281 317.566406 328.488281 274.71875 C 328.488281 231.871094 362.769531 197.136719 405.054688 197.136719 Z M 522.101562 251.582031 L 522.101562 602.679688 C 522.101562 608.347656 517.988281 612.941406 512.925781 612.929688 C 511.207031 612.929688 509.515625 612.378906 508.054688 611.359375 L 409.921875 542.363281 C 406.9375 540.257812 403.140625 540.257812 400.171875 542.363281 L 302.011719 611.359375 C 297.71875 614.371094 292.066406 612.929688 289.367188 608.128906 C 288.445312 606.492188 287.964844 604.605469 287.964844 602.679688 L 287.964844 251.582031 C 287.964844 245.914062 292.066406 241.332031 297.125 241.332031 L 316.824219 241.332031 L 315.023438 246.3125 C 312.273438 255.28125 310.785156 264.828125 310.785156 274.71875 C 310.785156 327.472656 352.988281 370.238281 405.054688 370.238281 C 457.117188 370.238281 499.320312 327.472656 499.320312 274.71875 C 499.320312 264.828125 497.835938 255.28125 495.085938 246.3125 L 493.28125 241.332031 L 512.925781 241.332031 C 517.988281 241.332031 522.085938 245.914062 522.101562 251.566406 Z M 522.101562 251.582031 " fill-opacity="1" fill-rule="nonzero"/></g></svg>