<svg xmlns="http://www.w3.org/2000/svg" xmlns:xlink="http://www.w3.org/1999/xlink" width="90" zoomAndPan="magnify" viewBox="0 0 67.5 37.5" height="50" preserveAspectRatio="xMidYMid meet" version="1.0"><defs><g/></defs><g fill="#000000" fill-opacity="1"><g transform="translate(1.969268, 27.282022)"><g><path d="M 0.171875 -14.671875 L 0.171875 -18.34375 L 13.078125 -18.34375 L 13.078125 -14.671875 L 8.71875 -14.671875 L 8.71875 0 L 4.53125 0 L 4.53125 -14.671875 Z M 0.171875 -14.671875 "/></g></g></g><g fill="#000000" fill-opacity="1"><g transform="translate(13.242224, 27.282022)"><g><path d="M 1.703125 -17.765625 C 2.171875 -18.222656 2.722656 -18.453125 3.359375 -18.453125 C 3.992188 -18.453125 4.539062 -18.222656 5 -17.765625 C 5.457031 -17.304688 5.6875 -16.753906 5.6875 -16.109375 C 5.6875 -15.472656 5.457031 -14.925781 5 -14.46875 C 4.539062 -14.007812 3.992188 -13.78125 3.359375 -13.78125 C 2.722656 -13.78125 2.171875 -14.007812 1.703125 -14.46875 C 1.242188 -14.925781 1.015625 -15.472656 1.015625 -16.109375 C 1.015625 -16.753906 1.242188 -17.304688 1.703125 -17.765625 Z M 1.328125 -11.40625 L 1.328125 0 L 5.265625 0 L 5.265625 -11.40625 Z M 1.328125 -11.40625 "/></g></g></g><g fill="#000000" fill-opacity="1"><g transform="translate(17.978207, 27.282022)"><g><path d="M 14.359375 -11.40625 L 8.9375 -5.953125 L 14.890625 0 L 9.828125 0 L 5.265625 -4.5625 L 5.265625 0 L 1.328125 0 L 1.328125 -19.125 L 5.265625 -19.125 L 5.265625 -7.421875 L 9.25 -11.40625 Z M 14.359375 -11.40625 "/></g></g></g><g fill="#000000" fill-opacity="1"><g transform="translate(30.362873, 27.282022)"><g><path d="M 0.171875 -14.671875 L 0.171875 -18.34375 L 13.078125 -18.34375 L 13.078125 -14.671875 L 8.71875 -14.671875 L 8.71875 0 L 4.53125 0 L 4.53125 -14.671875 Z M 0.171875 -14.671875 "/></g></g></g><g fill="#000000" fill-opacity="1"><g transform="translate(41.635828, 27.282022)"><g><path d="M 1.703125 -17.765625 C 2.171875 -18.222656 2.722656 -18.453125 3.359375 -18.453125 C 3.992188 -18.453125 4.539062 -18.222656 5 -17.765625 C 5.457031 -17.304688 5.6875 -16.753906 5.6875 -16.109375 C 5.6875 -15.472656 5.457031 -14.925781 5 -14.46875 C 4.539062 -14.007812 3.992188 -13.78125 3.359375 -13.78125 C 2.722656 -13.78125 2.171875 -14.007812 1.703125 -14.46875 C 1.242188 -14.925781 1.015625 -15.472656 1.015625 -16.109375 C 1.015625 -16.753906 1.242188 -17.304688 1.703125 -17.765625 Z M 1.328125 -11.40625 L 1.328125 0 L 5.265625 0 L 5.265625 -11.40625 Z M 1.328125 -11.40625 "/></g></g></g><g fill="#000000" fill-opacity="1"><g transform="translate(46.371811, 27.282022)"><g><path d="M 14.359375 -11.40625 L 8.9375 -5.953125 L 14.890625 0 L 9.828125 0 L 5.265625 -4.5625 L 5.265625 0 L 1.328125 0 L 1.328125 -19.125 L 5.265625 -19.125 L 5.265625 -7.421875 L 9.25 -11.40625 Z M 14.359375 -11.40625 "/></g></g></g><g fill="#000000" fill-opacity="1"><g transform="translate(58.756477, 27.282022)"><g><path d="M 3.875 -4.765625 C 4.582031 -4.765625 5.179688 -4.515625 5.671875 -4.015625 C 6.171875 -3.515625 6.421875 -2.910156 6.421875 -2.203125 C 6.421875 -1.503906 6.171875 -0.90625 5.671875 -0.40625 C 5.179688 0.0820312 4.582031 0.328125 3.875 0.328125 C 3.175781 0.328125 2.578125 0.0820312 2.078125 -0.40625 C 1.578125 -0.90625 1.328125 -1.503906 1.328125 -2.203125 C 1.328125 -2.910156 1.578125 -3.515625 2.078125 -4.015625 C 2.578125 -4.515625 3.175781 -4.765625 3.875 -4.765625 Z M 3.875 -4.765625 "/></g></g></g></svg>