<svg xmlns="http://www.w3.org/2000/svg" xmlns:xlink="http://www.w3.org/1999/xlink" width="1080" zoomAndPan="magnify" viewBox="0 0 810 809.999993" height="1080" preserveAspectRatio="xMidYMid meet" version="1.0"><rect x="-81" width="972" fill="#ffffff" y="-80.999999" height="971.999992" fill-opacity="1"/><path fill="#545454" d="M 289.113281 498.640625 C 314.863281 498.640625 334.765625 486.351562 351.152344 474.644531 C 366.371094 463.523438 383.929688 444.210938 401.488281 423.722656 C 420.21875 444.792969 437.777344 464.109375 451.238281 474.058594 C 470.550781 488.691406 498.0625 498.054688 520.886719 498.054688 C 548.394531 498.054688 574.148438 486.351562 592.292969 466.449219 C 610.4375 446.550781 618.628906 420.796875 615.117188 393.875 C 610.4375 351.148438 575.320312 316.03125 532.007812 311.347656 C 505.085938 308.421875 472.894531 317.785156 451.238281 335.929688 C 436.605469 347.636719 419.632812 366.949219 401.488281 388.019531 C 383.929688 368.121094 366.371094 349.390625 351.738281 337.101562 C 335.9375 323.640625 317.792969 311.347656 292.039062 310.761719 C 242.875 309.59375 200.734375 345.878906 194.882812 393.875 C 191.953125 420.796875 200.148438 446.550781 218.292969 466.449219 C 235.851562 486.933594 262.1875 498.640625 289.113281 498.640625 Z M 465.285156 354.660156 C 482.257812 340.613281 508.011719 333.003906 529.082031 335.34375 C 561.855469 338.855469 588.195312 365.195312 591.707031 396.800781 C 594.046875 416.699219 587.609375 436.015625 574.148438 451.234375 C 560.6875 466.449219 540.785156 475.230469 520.300781 475.230469 C 502.742188 475.230469 480.503906 467.621094 464.699219 455.914062 C 452.992188 447.136719 434.847656 426.652344 416.121094 406.164062 C 434.265625 386.265625 451.824219 365.78125 465.285156 354.660156 Z M 218.292969 396.800781 C 221.804688 361.683594 252.824219 334.761719 289.113281 334.761719 C 289.699219 334.761719 290.28125 334.761719 291.453125 334.761719 C 309.011719 335.34375 321.890625 342.953125 337.105469 355.832031 C 351.152344 367.535156 368.710938 386.851562 386.269531 406.75 C 368.710938 427.234375 351.738281 445.964844 337.691406 456.5 C 323.644531 466.449219 308.425781 475.816406 289.699219 475.816406 C 269.210938 475.816406 249.3125 467.035156 235.851562 451.816406 C 221.804688 436.601562 215.953125 417.285156 218.292969 396.800781 Z M 218.292969 396.800781 " fill-opacity="1" fill-rule="nonzero"/><path fill="#545454" d="M 704.667969 459.425781 C 678.914062 601.066406 554.25 709.34375 405 709.34375 C 238.777344 709.34375 103.574219 575.3125 100.648438 410.261719 L 127.574219 437.1875 C 129.914062 438.941406 132.839844 440.113281 135.765625 440.113281 C 138.691406 440.113281 141.621094 438.941406 143.960938 436.601562 C 148.644531 431.917969 148.644531 424.894531 143.960938 420.210938 L 97.136719 373.390625 C 92.457031 368.707031 85.433594 368.707031 80.75 373.390625 L 33.925781 420.210938 C 29.242188 424.894531 29.242188 431.917969 33.925781 436.601562 C 38.609375 441.28125 45.632812 441.28125 50.3125 436.601562 L 77.238281 409.675781 C 80.164062 588.191406 225.902344 732.757812 405 732.757812 C 565.953125 732.757812 699.984375 616.285156 727.496094 462.9375 C 719.886719 464.109375 711.691406 462.9375 704.667969 459.425781 Z M 704.667969 459.425781 " fill-opacity="1" fill-rule="nonzero"/><path fill="#545454" d="M 776.074219 373.390625 C 771.390625 368.707031 764.367188 368.707031 759.683594 373.390625 L 732.761719 400.3125 C 729.835938 221.800781 584.097656 77.234375 405 77.234375 C 244.046875 77.234375 110.015625 193.707031 82.503906 347.050781 C 90.113281 345.878906 98.308594 347.050781 105.332031 350.5625 C 131.085938 208.921875 255.75 100.644531 405 100.644531 C 571.222656 100.644531 706.425781 234.675781 709.351562 400.3125 L 682.425781 373.390625 C 677.746094 368.707031 670.722656 368.707031 666.039062 373.390625 C 661.355469 378.070312 661.355469 385.09375 666.039062 389.777344 L 712.863281 436.601562 C 715.203125 438.941406 718.128906 440.113281 721.054688 440.113281 C 723.984375 440.113281 726.910156 438.941406 729.25 436.601562 L 776.074219 389.777344 C 780.753906 385.09375 780.753906 378.070312 776.074219 373.390625 Z M 776.074219 373.390625 " fill-opacity="1" fill-rule="nonzero"/></svg>